# xmcd CD database file
# Copyright (C) 1993-1998 Ti Kan
#
# Track frame offsets:
#	150
#	11370
#	22420
#	34362
#	47612
#	61200
#	78152
#	89412
#	102702
#	114540
#	128787
#	140697
#
# Disc length: 2060 seconds
#
# Revision: 1
# Processed by: cddbd v1.4b41PL1 Copyright (c) Steve Scherf et al.
# Submitted via: NotifyCDPlayer(CDDB) 1.51.3
#
DISCID=a4080a0c
DTITLE=Conway Twitty - Greatest Hits - Finest Performances
DYEAR=1900
DGENRE=
TTITLE0=Hello Darlin'
TTITLE1=As Soon As I Hang Up The Phone
TTITLE2=Linda On My Mind
TTITLE3=Danny Boy
TTITLE4=The Games That Daddies Play
TTITLE5=Don't Cry Joni
TTITLE6=It's Only Make Believe
TTITLE7=After All The Good Is Gone
TTITLE8=I'm Not Through Loving You Yet
TTITLE9=:You've Never Been This Far Before
TTITLE10=I Can't See Me Without You
TTITLE11=Fifteen Years Ago
EXTD=
EXTT0=
EXTT1=
EXTT2=
EXTT3=
EXTT4=
EXTT5=
EXTT6=
EXTT7=
EXTT8=
EXTT9=
EXTT10=
EXTT11=
PLAYORDER=
